<?xml version="1.0" encoding="utf-8"?>
<!-- Generator: Adobe Illustrator 24.0.1, SVG Export Plug-In . SVG Version: 6.00 Build 0)  -->
<svg version="1.1" id="Layer_1" xmlns="http://www.w3.org/2000/svg" xmlns:xlink="http://www.w3.org/1999/xlink" x="0px" y="0px"
	 viewBox="0 0 15.79 15.79" style="enable-background:new 0 0 15.79 15.79;" xml:space="preserve">
<style type="text/css">
	.st0{fill:#F38D20;}
</style>
<path class="st0" d="M15.79,3.5c-0.99,0-1.88,0.83-1.88,1.71v7.09c0.99,0,1.88-0.83,1.88-1.71V3.5z"/>
<path class="st0" d="M12.21,12.3c-0.03-0.69-0.5-1.74-1.66-1.88H6.41l4.77-4.57c0.2-0.19,0.65-0.84,0.33-1.55
	c-0.26-0.56-0.69-0.8-1.45-0.8H4.12c0.02,0.79,0.42,1.73,1.46,1.9h3.4l-5.02,4.72c-0.2,0.19-0.54,0.8-0.27,1.41
	c0.24,0.55,0.64,0.77,1.39,0.77H12.21z"/>
<path class="st0" d="M14.76,13.41c0.18,0.18,0.28,0.43,0.28,0.67c0,0.29-0.13,0.52-0.27,0.67c-0.28,0.28-0.66,0.57-1.16,0.78
	c-0.42,0.17-0.88,0.27-1.36,0.27H3.55c-0.98,0-1.87-0.4-2.51-1.04C0.4,14.11,0,13.22,0,12.24V3.55c0-0.98,0.4-1.87,1.04-2.51
	C1.68,0.4,2.57,0,3.55,0h8.69c0.48,0,0.94,0.1,1.36,0.27c0.57,0.24,0.94,0.53,1.3,0.91c0.14,0.15,0.28,0.38,0.28,0.67
	c0,0.24-0.09,0.48-0.28,0.66c-0.18,0.18-0.42,0.28-0.66,0.28c-0.24,0-0.49-0.09-0.67-0.28c-0.25-0.25-0.39-0.38-0.68-0.5
	c-0.2-0.08-0.42-0.13-0.65-0.13H3.55c-0.46,0-0.88,0.19-1.18,0.49c-0.3,0.3-0.49,0.72-0.49,1.18v8.69c0,0.46,0.19,0.88,0.49,1.18
	c0.3,0.3,0.72,0.49,1.18,0.49h8.69c0.23,0,0.45-0.05,0.65-0.13c0.18-0.08,0.37-0.19,0.54-0.37c0.18-0.18,0.42-0.27,0.67-0.27
	C14.33,13.14,14.57,13.23,14.76,13.41"/>
</svg>
